<?xml version="1.0" encoding="utf-8"?>
<!-- Generator: Adobe Illustrator 19.0.0, SVG Export Plug-In . SVG Version: 6.00 Build 0)  -->
<svg version="1.1" id="Layer_1" xmlns="http://www.w3.org/2000/svg" xmlns:xlink="http://www.w3.org/1999/xlink" x="0px" y="0px"
	 viewBox="0 0 96 96" style="enable-background:new 0 0 96 96;" xml:space="preserve">
<style type="text/css">
	.st0{fill:#333333;}
</style>
<g id="XMLID_2_">
	<path id="XMLID_8_" class="st0" d="M31,41.3l-4.9-4.9c-3.1,4-5,8.6-5.6,13.4h7C28,46.8,29.1,43.9,31,41.3z M27.5,56.8h-7
		c0.6,4.8,2.5,9.4,5.6,13.4l4.9-4.9C29.1,62.7,28,59.8,27.5,56.8z M31,75.1c4,3.1,8.7,5,13.5,5.6v-7c-3-0.5-5.9-1.7-8.5-3.5L31,75.1
		z M51.3,25.9V15.3L35.6,31l15.7,15.4V32.9c9.8,1.6,17.3,10.2,17.3,20.4s-7.5,18.8-17.3,20.4v7C65,79,75.5,67.4,75.5,53.3
		S65,27.6,51.3,25.9z"/>
</g>
</svg>
